<?xml version="1.0" encoding="UTF-8" standalone="no"?>
<!-- Created with Inkscape (http://www.inkscape.org/) -->

<svg
   width="100mm"
   height="210mm"
   viewBox="0 0 100 210"
   version="1.1"
   id="svg70858"
   inkscape:version="1.1 (c68e22c387, 2021-05-23)"
   sodipodi:docname="precision.svg"
   xmlns:inkscape="http://www.inkscape.org/namespaces/inkscape"
   xmlns:sodipodi="http://sodipodi.sourceforge.net/DTD/sodipodi-0.dtd"
   xmlns="http://www.w3.org/2000/svg"
   xmlns:svg="http://www.w3.org/2000/svg">
  <sodipodi:namedview
     id="namedview70860"
     pagecolor="#ffffff"
     bordercolor="#666666"
     borderopacity="1.0"
     inkscape:pageshadow="2"
     inkscape:pageopacity="0.0"
     inkscape:pagecheckerboard="0"
     inkscape:document-units="mm"
     showgrid="false"
     width="90mm"
     inkscape:zoom="0.72337262"
     inkscape:cx="196.99391"
     inkscape:cy="467.25573"
     inkscape:window-width="1507"
     inkscape:window-height="1030"
     inkscape:window-x="192"
     inkscape:window-y="0"
     inkscape:window-maximized="0"
     inkscape:current-layer="layer1" />
  <defs
     id="defs70855" />
  <g
     inkscape:label="Calque 1"
     inkscape:groupmode="layer"
     id="layer1">
    <path
       id="path4718"
       style="fill:#21d41b;fill-opacity:1;stroke:#ffffff;stroke-width:0;stroke-miterlimit:4;stroke-dasharray:none"
       d="m 51.947592,111.15181 a 42.853388,43.666712 0 0 0 -0.48024,-0.007 42.853388,43.666712 0 0 0 -42.8534358,43.66685 42.853388,43.666712 0 0 0 42.8534358,43.66685 42.853388,43.666712 0 0 0 0.47615,-0.018 z" />
    <path
       id="path4718-8"
       style="fill:#21d41b;fill-opacity:1;stroke:#ffffff;stroke-width:0;stroke-miterlimit:4;stroke-dasharray:none"
       d="m 52.237572,4.2662939 a 42.98959,43.720158 0 0 0 -0.48178,-0.007 42.98959,43.720158 0 0 0 -42.9896368,43.7203001 42.98959,43.720158 0 0 0 42.9896368,43.720287 42.98959,43.720158 0 0 0 0.47766,-0.018 z" />
    <path
       style="fill:none;stroke:#000000;stroke-width:1.99843px;stroke-linecap:butt;stroke-linejoin:miter;stroke-opacity:1"
       d="m 23.519942,102.09058 60.4946,0.002"
       id="path70765" />
    <path
       id="path5193"
       style="fill:#d91a1b;fill-opacity:1;stroke:#ffffff;stroke-width:0;stroke-miterlimit:4;stroke-dasharray:none"
       d="m 51.947592,111.15181 -0.004,87.32248 A 43.812955,43.673231 0 0 0 95.269787,154.81895 43.812955,43.673231 0 0 0 51.947762,111.15181 Z" />
  </g>
</svg>
