<?xml version="1.0" encoding="UTF-8" standalone="no"?>
<!-- Created with Inkscape (http://www.inkscape.org/) -->

<svg
   width="100mm"
   height="210mm"
   viewBox="0 0 100 210"
   version="1.1"
   id="svg70858"
   inkscape:version="1.1 (c68e22c387, 2021-05-23)"
   sodipodi:docname="precision.svg"
   xmlns:inkscape="http://www.inkscape.org/namespaces/inkscape"
   xmlns:sodipodi="http://sodipodi.sourceforge.net/DTD/sodipodi-0.dtd"
   xmlns="http://www.w3.org/2000/svg"
   xmlns:svg="http://www.w3.org/2000/svg">
  <sodipodi:namedview
     id="namedview70860"
     pagecolor="#ffffff"
     bordercolor="#666666"
     borderopacity="1.0"
     inkscape:pageshadow="2"
     inkscape:pageopacity="0.0"
     inkscape:pagecheckerboard="0"
     inkscape:document-units="mm"
     showgrid="false"
     width="90mm"
     inkscape:zoom="1.0230034"
     inkscape:cx="31.280444"
     inkscape:cy="493.15576"
     inkscape:window-width="1920"
     inkscape:window-height="1001"
     inkscape:window-x="-9"
     inkscape:window-y="-9"
     inkscape:window-maximized="1"
     inkscape:current-layer="layer1" />
  <defs
     id="defs70855">
    <filter
       inkscape:collect="always"
       style="color-interpolation-filters:sRGB"
       id="filter47145"
       x="-0.00024928575"
       y="-0.00040440059"
       width="1.0004986"
       height="1.0008088">
      <feGaussianBlur
         inkscape:collect="always"
         stdDeviation="0.0015166972"
         id="feGaussianBlur47147" />
    </filter>
    <filter
       inkscape:collect="always"
       style="color-interpolation-filters:sRGB"
       id="filter47145-1"
       x="-0.00024928575"
       y="-0.00040440059"
       width="1.0004986"
       height="1.0008088">
      <feGaussianBlur
         inkscape:collect="always"
         stdDeviation="0.0015166972"
         id="feGaussianBlur47147-4" />
    </filter>
    <filter
       inkscape:collect="always"
       style="color-interpolation-filters:sRGB"
       id="filter47145-1-0"
       x="-0.00024928575"
       y="-0.00040440059"
       width="1.0004986"
       height="1.0008088">
      <feGaussianBlur
         inkscape:collect="always"
         stdDeviation="0.0015166972"
         id="feGaussianBlur47147-4-9" />
    </filter>
  </defs>
  <g
     inkscape:label="Calque 1"
     inkscape:groupmode="layer"
     id="layer1">
    <path
       id="path4718"
       style="fill:#0fee14;fill-opacity:1;stroke:#ffffff;stroke-width:0;stroke-miterlimit:4;stroke-dasharray:none"
       d="m 51.947592,111.15181 a 42.853388,43.666712 0 0 0 -0.48024,-0.007 42.853388,43.666712 0 0 0 -42.8534358,43.66685 42.853388,43.666712 0 0 0 42.8534358,43.66685 42.853388,43.666712 0 0 0 0.47615,-0.018 z" />
    <path
       id="path4718-8"
       style="fill:#0fee14;fill-opacity:1;stroke:#ffffff;stroke-width:0;stroke-miterlimit:4;stroke-dasharray:none;stroke-opacity:0.12779553"
       d="m 52.603335,4.6320575 a 42.98959,43.720158 0 0 0 -0.48178,-0.007 42.98959,43.720158 0 0 0 -42.9896359,43.7202995 42.98959,43.720158 0 0 0 42.9896359,43.720287 42.98959,43.720158 0 0 0 0.47766,-0.018 z" />
    <path
       id="path4718-8-4"
       style="fill:#ffffff;fill-opacity:0.4;stroke:#ffffff;stroke-width:0;stroke-miterlimit:4;stroke-dasharray:none;stroke-opacity:0.127796"
       d="m 52.603335,4.632057 a 42.98959,43.720158 0 0 0 -0.48178,-0.007 42.98959,43.720158 0 0 0 -42.989636,43.7203 42.98959,43.720158 0 0 0 42.989636,43.720287 42.98959,43.720158 0 0 0 0.47766,-0.018 z" />
    <path
       id="path4718-8-4-0"
       style="fill:#ffffff;fill-opacity:0.4;stroke:#ffffff;stroke-width:0;stroke-miterlimit:4;stroke-dasharray:none;stroke-opacity:0.127796"
       d="m 52.474678,111.05721 a 42.98959,43.720158 0 0 0 -0.48178,-0.007 42.98959,43.720158 0 0 0 -42.989635,43.7203 42.98959,43.720158 0 0 0 42.989635,43.72029 42.98959,43.720158 0 0 0 0.47766,-0.018 z" />
    <path
       style="fill:none;stroke:#000000;stroke-width:2.314px;stroke-linecap:butt;stroke-linejoin:miter;stroke-opacity:1"
       d="m 9.4720789,102.09058 81.1264641,0.002"
       id="path70765" />
    <path
       id="path5193"
       style="fill:#d91a1b;fill-opacity:1;stroke:#ffffff;stroke-width:0;stroke-miterlimit:4;stroke-dasharray:none"
       d="m 51.947592,111.15181 -0.004,87.32248 A 43.812955,43.673231 0 0 0 95.269787,154.81895 43.812955,43.673231 0 0 0 51.947762,111.15181 Z" />
    <path
       id="path4718-8-4-0-7"
       style="fill:#ffffff;fill-opacity:0.4;stroke:#ffffff;stroke-width:0;stroke-miterlimit:4;stroke-dasharray:none;stroke-opacity:0.127796"
       d="m 51.943592,198.47429 c 0.160596,0.002 0.848169,0.002 1.00878,0.003 23.742137,-0.1431 42.870936,-19.83305 42.725299,-43.97866 -0.145489,-24.14561 -19.510284,-43.60349 -43.252416,-43.46034 -0.159218,0.006 -0.318401,0.013 -0.477543,0.0209 z"
       sodipodi:nodetypes="cccccc" />
    <text
       xml:space="preserve"
       style="font-style:normal;font-weight:normal;font-size:12.3472px;line-height:1.25;font-family:sans-serif;mix-blend-mode:normal;fill:#ffffff;fill-opacity:1;stroke:none;stroke-width:0.284534;stroke-opacity:1;filter:url(#filter47145)"
       x="35.005821"
       y="18.409428"
       id="text13817-9-7"
       transform="matrix(0.97395858,0,0,1.0267377,-2.6873653,66.918767)"><tspan
         sodipodi:role="line"
         style="font-size:12.3472px;fill:#ffffff;fill-opacity:1;stroke:none;stroke-width:0.284534;stroke-opacity:1"
         x="35.005821"
         y="18.409428"
         id="tspan54329-3">TP</tspan></text>
    <text
       xml:space="preserve"
       style="font-style:normal;font-weight:normal;font-size:12.3472px;line-height:1.25;font-family:sans-serif;mix-blend-mode:normal;fill:#ffffff;fill-opacity:1;stroke:none;stroke-width:0.284534;stroke-opacity:1;filter:url(#filter47145-1)"
       x="35.005821"
       y="18.409428"
       id="text13817-9-7-4"
       transform="matrix(0.97395858,0,0,1.0267377,-2.6873653,174.08748)"><tspan
         sodipodi:role="line"
         style="font-size:12.3472px;fill:#ffffff;fill-opacity:1;stroke:none;stroke-width:0.284534;stroke-opacity:1"
         x="35.005821"
         y="18.409428"
         id="tspan54329-3-3">TP</tspan></text>
    <text
       xml:space="preserve"
       style="font-style:normal;font-weight:normal;font-size:12.3472px;line-height:1.25;font-family:sans-serif;mix-blend-mode:normal;fill:#ffffff;fill-opacity:1;stroke:none;stroke-width:0.284534;stroke-opacity:1;filter:url(#filter47145-1-0)"
       x="35.005821"
       y="18.409428"
       id="text13817-9-7-4-0"
       transform="matrix(0.97395858,0,0,1.0267377,23.570281,174.08748)"><tspan
         sodipodi:role="line"
         style="font-size:12.3472px;fill:#ffffff;fill-opacity:1;stroke:none;stroke-width:0.284534;stroke-opacity:1"
         x="35.005821"
         y="18.409428"
         id="tspan54329-3-3-1">FP</tspan></text>
  </g>
</svg>
